<svg width="22" height="22" viewBox="0 0 22 22" fill="none" xmlns="http://www.w3.org/2000/svg">
<path fill-rule="evenodd" clip-rule="evenodd" d="M11.1548 18.9811C15.52 18.9811 19.0587 15.4424 19.0587 11.0772C19.0587 6.71194 15.52 3.17322 11.1548 3.17322C6.78957 3.17322 3.25086 6.71194 3.25086 11.0772C3.25086 15.4424 6.78957 18.9811 11.1548 18.9811ZM11.1548 21.6158C16.9751 21.6158 21.6934 16.8975 21.6934 11.0772C21.6934 5.25686 16.9751 0.538574 11.1548 0.538574C5.3345 0.538574 0.616211 5.25686 0.616211 11.0772C0.616211 16.8975 5.3345 21.6158 11.1548 21.6158Z" fill="#FE8057"/>
<path fill-rule="evenodd" clip-rule="evenodd" d="M10.1668 12.0652V16.6661H12.1428V12.0652H16.7437V10.0892H12.1428V5.48823H10.1668V10.0892H5.56586V12.0652H10.1668Z" fill="#FE8057"/>
</svg>
