<svg width="174" height="162" viewBox="0 0 174 162" fill="none" xmlns="http://www.w3.org/2000/svg">
<g clip-path="url(#clip0_49_886)">
<path d="M166.223 28.9225C171.702 63.9658 149.499 98.333 121.413 119.173C107.564 129.455 89.5899 136.516 71.7187 131.075C63.9918 128.674 56.853 124.133 52.7489 117.327C50.2445 113.217 48.5361 107.767 51.6215 103.614C56.3078 97.297 64.2033 102.148 64.8994 108.605C66.0697 120.644 47.5594 124.333 38.2536 125.024C27.3499 125.802 16.4567 123.882 5.88835 121.268C2.87393 120.524 2.1855 125.037 5.19109 125.756C17.8619 128.817 31.1565 130.822 44.0987 128.764C53.4909 127.271 64.5467 123.54 68.3608 114.531C71.1063 107.961 67.6788 98.6915 59.9529 96.5311C51.8101 94.258 45.3572 101.584 45.2935 108.655C44.9252 128.461 71.1069 138.385 88.418 137.234C112.493 135.633 132.642 117.701 146.482 100.649C162.881 80.2856 173.157 54.7706 168.378 28.7051C168.136 27.4674 165.994 27.6027 166.223 28.9225Z" fill="#F3F3F3"/>
<path d="M25.05 111.824C25.9961 116.507 10.1317 118.543 7.54462 119.077C5.32872 119.525 2.68476 120.014 2.40353 122.647C2.1223 125.28 5.92818 127.755 7.75064 129.346C12.2508 133.274 16.6025 137.334 21.2638 141.047C23.5367 142.864 26.0858 139.696 24.07 137.786C20.5735 134.471 16.8285 131.357 13.1693 128.184C12.371 127.484 7.68647 124.332 8.1162 123.21C9.54373 122.868 10.9988 122.629 12.469 122.495C17.5667 121.342 26.6583 118.494 28.3638 113.19C28.4952 112.881 28.5205 112.54 28.4362 112.213C28.352 111.886 28.1623 111.589 27.8936 111.365L27.1735 110.737C26.9781 110.562 26.7301 110.449 26.4651 110.415C26.2 110.38 25.9317 110.425 25.6988 110.544C25.4658 110.662 25.2803 110.848 25.1688 111.075C25.0574 111.301 25.0258 111.557 25.0786 111.804L25.05 111.824Z" fill="#F3F3F3"/>
<path d="M170.986 27.7903C171.018 27.3443 170.917 26.8963 170.692 26.4978C170.467 26.0993 170.129 25.7666 169.716 25.5381C169.303 25.3096 168.831 25.1945 168.357 25.2062C167.882 25.2178 167.423 25.3558 167.033 25.604C166.866 25.7163 166.736 25.869 166.654 26.0462C166.573 26.2234 166.544 26.4188 166.569 26.6122C166.723 27.4731 167.13 28.2805 167.743 28.9423C168.356 29.6041 169.151 30.0938 170.038 30.3554C170.299 30.4591 170.586 30.4832 170.859 30.4243C171.132 30.3654 171.376 30.2266 171.558 30.0275C173.569 27.1116 170.343 24.1141 167.531 22.9692C166.857 22.619 166.094 22.4571 165.332 22.5027C164.571 22.5482 163.844 22.7994 163.237 23.2262C161.777 24.4035 162.163 26.2757 163.109 27.6708C164.828 30.1702 169.038 32.8405 171.855 30.2537C174.671 27.6669 171.508 23.851 168.635 22.9366C167.922 22.6776 167.16 22.5725 166.404 22.629C165.649 22.6855 164.92 22.9022 164.272 23.2631C163.624 23.6239 163.074 24.1194 162.662 24.7128C162.25 25.3062 161.988 25.982 161.894 26.69C161.607 29.5257 164.024 32.3856 167.227 31.587C168.016 31.4164 168.736 31.0415 169.304 30.5043C169.873 29.967 170.269 29.2885 170.448 28.5446C170.628 27.8006 170.583 27.0204 170.319 26.2911C170.055 25.5618 169.583 24.9121 168.955 24.4145C168.357 23.9486 167.647 23.6288 166.891 23.4841C166.135 23.3393 165.356 23.3743 164.625 23.5858C164.214 23.6785 163.834 23.8616 163.516 24.1202C163.198 24.3787 162.95 24.7055 162.794 25.074C162.637 25.4425 162.575 25.8422 162.614 26.2409C162.652 26.6395 162.79 27.0257 163.015 27.3682C163.72 28.2799 164.512 29.1301 165.38 29.9079C166.001 30.66 166.854 31.2125 167.818 31.4867C168.563 31.6161 169.328 31.5017 169.985 31.1626C170.642 30.8236 171.152 30.2803 171.429 29.6234C171.773 28.9282 171.893 28.1498 171.774 27.3832C171.654 26.6166 171.302 25.8951 170.758 25.3067C169.262 23.7541 166.99 23.4131 164.906 23.2574C164.12 23.1353 163.136 23.6305 163.105 24.4898C163.046 25.334 163.166 26.1841 163.458 26.9905C163.75 27.7969 164.208 28.5436 164.806 29.1871C165.404 29.8306 166.13 30.358 166.941 30.7387C167.751 31.1194 168.632 31.3458 169.53 31.4046C170.318 31.431 171.309 31.0569 171.347 30.1508C171.386 29.4009 171.207 28.6514 170.829 27.9829C170.451 27.3144 169.888 26.7522 169.202 26.3568C168.516 25.9613 167.732 25.7476 166.934 25.7387C166.136 25.7297 165.355 25.9258 164.675 26.3059C162.909 27.2316 164.84 29.764 166.603 28.7778C166.765 28.7378 166.935 28.729 167.102 28.7517C167.268 28.7745 167.429 28.8284 167.575 28.9103C167.721 28.9922 167.848 29.1004 167.949 29.2286C168.051 29.3568 168.125 29.5023 168.166 29.6566L169.996 28.4047C169.514 28.4123 169.034 28.3292 168.583 28.1603C168.133 27.9913 167.721 27.7398 167.372 27.4206C167.023 27.1014 166.743 26.721 166.551 26.3015C166.358 25.8821 166.255 25.4322 166.248 24.9781L164.447 26.2105C165.584 26.2912 168.918 26.377 168.681 28.0684C168.577 28.7364 168.49 28.6388 168.06 28.3679C167.209 27.6729 166.447 26.8858 165.792 26.0234C165.625 25.7814 165.6 25.8615 165.757 26.246C165.919 26.2007 166.092 26.2026 166.255 26.2513C166.634 26.4422 167.016 26.4535 167.307 26.7988C167.424 26.9416 167.506 27.1068 167.547 27.2823C167.587 27.4577 167.585 27.6387 167.541 27.8119C167.497 27.985 167.412 28.1458 167.292 28.2822C167.172 28.4187 167.02 28.5272 166.848 28.5998C165.451 29.3669 164.711 27.8837 164.907 26.786C165.145 25.3348 166.872 25.159 168.198 25.7491C168.572 25.9104 168.91 26.1403 169.19 26.4251C169.471 26.7099 169.689 27.0438 169.831 27.407C170.137 28.4026 169.253 28.6614 168.402 28.3851C167.497 28.0153 166.706 27.4288 166.111 26.685C165.608 26.1388 164.701 24.9058 166.078 25.2517C167.455 25.5977 170.308 27.301 169.392 28.7549L170.776 28.0698C170.289 27.9467 169.846 27.6973 169.497 27.3502C169.149 27.0032 168.91 26.5726 168.807 26.1077L168.428 27.3931C168.589 27.1781 168.752 27.2033 168.902 27.4667C168.893 27.7121 168.98 27.9539 169.147 28.1456C169.314 28.3373 169.55 28.4655 169.808 28.5056C170.066 28.5457 170.329 28.4949 170.546 28.3629C170.764 28.2309 170.92 28.027 170.986 27.7903Z" fill="#F3F3F3"/>
</g>
<defs>
<clipPath id="clip0_49_886">
<rect width="139.772" height="154.004" fill="white" transform="translate(173.636 23.6416) rotate(98.8305)"/>
</clipPath>
</defs>
</svg>
