<svg width="212" height="212" viewBox="0 0 212 212" fill="none" xmlns="http://www.w3.org/2000/svg">
<path d="M18.9744 145.537C14.1982 135.073 18.8215 122.745 29.3008 118.003C39.7801 113.26 52.1471 117.898 56.9233 128.362C61.6994 138.826 57.0761 151.154 46.5969 155.897C36.1176 160.64 23.7506 156.002 18.9744 145.537Z" fill="#301E52"/>
<path d="M87.7148 155.612L92.0677 157.245C97.4078 142.941 96.8407 127.096 90.4908 113.184C84.1408 99.2714 72.526 88.4269 58.1923 83.027L56.565 87.3661C69.7454 92.3315 80.4256 102.304 86.2646 115.096C92.1037 127.889 92.6251 142.459 87.7148 155.612Z" fill="#301E52"/>
<path d="M121.605 168.322L125.958 169.955C144.09 121.605 119.373 67.395 70.8384 49.193L69.2111 53.5321C115.364 70.8409 138.859 122.316 121.605 168.322Z" fill="#FE8057"/>
<path d="M154.488 180.654L158.841 182.287C183.766 115.824 149.796 41.4437 83.1406 16.4461L81.5134 20.7851C145.768 44.8826 178.509 116.603 154.488 180.654Z" fill="#FE8057"/>
<path d="M26.5497 142.109C23.6804 135.822 26.4579 128.416 32.7535 125.567C39.049 122.718 46.4787 125.504 49.348 131.79C52.2174 138.077 49.4399 145.483 43.1443 148.332C36.8487 151.182 29.4191 148.395 26.5497 142.109Z" fill="#FCD44D"/>
<path d="M33.2549 139.074C32.0734 136.485 33.2171 133.436 35.8094 132.263C38.4017 131.089 41.4609 132.237 42.6424 134.825C43.8239 137.414 42.6803 140.463 40.088 141.637C37.4957 142.81 34.4364 141.663 33.2549 139.074Z" fill="white"/>
<path d="M86.7543 161.095C84.1685 159.361 83.477 155.867 85.2099 153.291C86.9428 150.715 90.4439 150.032 93.0298 151.766C95.6156 153.5 96.3071 156.995 94.5742 159.571C92.8413 162.147 89.3402 162.829 86.7543 161.095Z" fill="#301E52"/>
<path d="M88.7994 158.312C87.749 157.71 87.3843 156.374 87.9848 155.328C88.5854 154.281 89.9237 153.92 90.9741 154.521C92.0245 155.123 92.3891 156.459 91.7886 157.505C91.1881 158.552 89.8497 158.913 88.7994 158.312Z" fill="white"/>
<path d="M118.205 169.824C117.831 166.74 120.033 163.943 123.123 163.576C126.213 163.209 129.022 165.412 129.396 168.495C129.77 171.579 127.568 174.376 124.478 174.743C121.388 175.11 118.579 172.907 118.205 169.824Z" fill="#FE8057"/>
<path d="M123.033 171.191C121.899 170.766 121.324 169.506 121.748 168.376C122.172 167.246 123.434 166.675 124.567 167.1C125.7 167.525 126.276 168.785 125.852 169.915C125.428 171.045 124.166 171.616 123.033 171.191Z" fill="white"/>
<path d="M151.076 182.214C150.66 179.136 152.823 176.309 155.908 175.9C158.993 175.492 161.831 177.656 162.248 180.734C162.664 183.813 160.5 186.639 157.415 187.048C154.33 187.457 151.492 185.293 151.076 182.214Z" fill="#FE8057"/>
<path d="M155.891 183.514C154.758 183.089 154.183 181.828 154.606 180.699C155.03 179.569 156.292 178.998 157.425 179.423C158.559 179.848 159.134 181.108 158.71 182.238C158.287 183.367 157.024 183.939 155.891 183.514Z" fill="white"/>
<path d="M66.3442 78.9927L47.0387 81.1634L60.1536 95.4998L66.3442 78.9927Z" fill="#301E52"/>
<path d="M78.9766 45.3088L59.671 47.4795L72.7859 61.816L78.9766 45.3088Z" fill="#FE8057"/>
<path d="M91.2627 12.5488L71.9548 14.7257L85.072 29.0559L91.2627 12.5488Z" fill="#FE8057"/>
</svg>
