<svg width="22" height="23" viewBox="0 0 22 23" fill="none" xmlns="http://www.w3.org/2000/svg">
<path fill-rule="evenodd" clip-rule="evenodd" d="M11 19.75C15.5563 19.75 19.25 16.0563 19.25 11.5C19.25 6.94365 15.5563 3.25 11 3.25C6.44365 3.25 2.75 6.94365 2.75 11.5C2.75 16.0563 6.44365 19.75 11 19.75ZM11 22.5C17.0751 22.5 22 17.5751 22 11.5C22 5.42487 17.0751 0.5 11 0.5C4.92487 0.5 0 5.42487 0 11.5C0 17.5751 4.92487 22.5 11 22.5Z" fill="#1FB141"/>
<path fill-rule="evenodd" clip-rule="evenodd" d="M17.2292 8.7917L9.625 16.3959L4.7708 11.5417L6.2292 10.0833L9.625 13.4791L15.7708 7.3333L17.2292 8.7917Z" fill="#1FB141"/>
</svg>
