<svg width="21" height="30" viewBox="0 0 21 30" fill="none" xmlns="http://www.w3.org/2000/svg">
<path fill-rule="evenodd" clip-rule="evenodd" d="M10.5002 0C11.5822 0 12.4592 0.877087 12.4592 1.95903V4.99907C13.2179 5.038 13.994 5.10962 14.7431 5.22947C15.9897 5.42894 17.3601 5.79115 18.4435 6.5134C19.3437 7.11354 19.587 8.32984 18.9868 9.23008C18.3867 10.1303 17.1704 10.3736 16.2701 9.77343C15.8842 9.51615 15.1731 9.26617 14.124 9.09832C13.1156 8.93697 11.9729 8.87804 10.8675 8.87804C9.76945 8.87804 8.7514 8.93599 8.00564 8.99448C7.63408 9.02362 7.33334 9.05264 7.12793 9.07407C7.02529 9.08478 6.94667 9.09357 6.89513 9.09951L6.8386 9.10615L6.82635 9.10764L6.8244 9.10788L6.70413 9.12291H6.58217C5.50023 9.12291 4.62314 10 4.62314 11.0819C4.62314 12.1639 5.50022 13.041 6.58217 13.041L14.4183 13.041C17.6641 13.041 20.2954 15.6722 20.2954 18.9181C20.2954 22.1215 17.7323 24.7264 14.545 24.7938C14.4808 24.8012 14.3913 24.8111 14.2792 24.8228C14.0446 24.8473 13.7101 24.8795 13.3012 24.9116C13.0482 24.9314 12.7655 24.9513 12.4592 24.9693V28.041C12.4592 29.1229 11.5822 30 10.5002 30C9.41827 30 8.54118 29.1229 8.54118 28.041V25.001C7.78254 24.962 7.00639 24.8904 6.25733 24.7706C5.01065 24.5711 3.64029 24.2089 2.55692 23.4866C1.65669 22.8865 1.41343 21.6702 2.01358 20.7699C2.61373 19.8697 3.83004 19.6265 4.73027 20.2266C5.11616 20.4839 5.82728 20.7339 6.87634 20.9017C7.88479 21.0631 9.02748 21.122 10.1329 21.122C11.231 21.122 12.249 21.064 12.9948 21.0055C13.3664 20.9764 13.6671 20.9474 13.8725 20.9259C13.9752 20.9152 14.0538 20.9064 14.1053 20.9005L14.1618 20.8938L14.1741 20.8924L14.176 20.8921L14.2963 20.8771H14.4183C15.5002 20.8771 16.3773 20 16.3773 18.9181C16.3773 17.8361 15.5002 16.959 14.4183 16.959L6.58217 16.959C3.33634 16.959 0.705078 14.3278 0.705078 11.0819C0.705078 7.87845 3.26815 5.2736 6.45548 5.20619C6.51965 5.19883 6.60917 5.18887 6.7213 5.17717C6.95589 5.15269 7.2903 5.12049 7.69929 5.08841C7.95221 5.06858 8.23488 5.04869 8.54118 5.03069V1.95903C8.54118 0.877087 9.41827 0 10.5002 0Z" fill="#F3F3F3"/>
</svg>
