<svg width="50" height="50" viewBox="0 0 50 50" fill="none" xmlns="http://www.w3.org/2000/svg">
<rect width="50" height="50" rx="10" fill="white"/>
<path d="M8.57404 39.2731H14.6432V24.5589L5.96289 18.1016V36.6972C5.96289 38.1086 7.12732 39.2731 8.57404 39.2731Z" fill="#4285F4"/>
<path d="M35.3916 39.2731H41.4608C42.9075 39.2731 44.0719 38.1086 44.0719 36.6619V18.1016L35.4269 24.5942V39.2731H35.3916Z" fill="#34A853"/>
<path d="M35.3916 13.338V24.5942L44.0366 18.1016V14.6436C44.0366 11.4326 40.3669 9.59772 37.791 11.5384L35.3916 13.338Z" fill="#FBBC04"/>
<path fill-rule="evenodd" clip-rule="evenodd" d="M14.6084 24.5589V13.338L24.9824 21.1362L35.3565 13.338V24.5942L25.0177 32.3571L14.6084 24.5589Z" fill="#EA4335"/>
<path d="M5.96289 14.6083V18.0663L14.6079 24.5589V13.338L12.1732 11.5031C9.63262 9.5977 5.96289 11.4326 5.96289 14.6083Z" fill="#C5221F"/>
</svg>
