<svg width="50" height="50" viewBox="0 0 50 50" fill="none" xmlns="http://www.w3.org/2000/svg">
<g clip-path="url(#clip0_108_1955)">
<path d="M12.6789 49.823C10.745 49.8015 8.82918 49.4468 7.01569 48.7745C5.69139 48.285 4.49324 47.5057 3.50882 46.4936C2.494 45.5112 1.71357 44.3127 1.22549 42.9873C0.5538 41.1738 0.199599 39.2582 0.178431 37.3245C0.029902 34.1098 0 33.1456 0 25C0 16.8544 0.0328431 15.8936 0.176961 12.6765C0.200697 10.7435 0.555334 8.82891 1.22549 7.01569C1.71595 5.69118 2.49527 4.49254 3.50686 3.50686C4.49006 2.49296 5.68878 1.71325 7.01422 1.22549C8.82771 0.553243 10.7435 0.198543 12.6775 0.176961C15.8931 0.029902 16.8588 0 25 0C33.1412 0 34.1064 0.0328431 37.3235 0.176961C39.257 0.20053 41.1721 0.555169 42.9858 1.22549C44.3106 1.71389 45.509 2.49333 46.4926 3.50637C47.506 4.49031 48.2858 5.68902 48.7745 7.01422C49.4469 8.82768 49.8018 10.7435 49.8235 12.6775C49.9706 15.8946 50.0005 16.8578 50.0005 25.001C50.0005 33.1441 49.9706 34.1073 49.8235 37.3245C49.8002 39.2582 49.4454 41.1735 48.7745 42.9873C48.2671 44.3025 47.4898 45.497 46.4928 46.4937C45.4958 47.4905 44.3012 48.2674 42.9858 48.7745C41.1723 49.4469 39.2565 49.8018 37.3225 49.8235C34.1083 49.9706 33.1422 50.0005 24.999 50.0005C16.8559 50.0005 15.8926 49.9721 12.6784 49.8235" fill="url(#paint0_radial_108_1955)"/>
<path d="M12.6789 49.823C10.745 49.8015 8.82918 49.4468 7.01569 48.7745C5.69139 48.285 4.49324 47.5057 3.50882 46.4936C2.494 45.5112 1.71357 44.3127 1.22549 42.9873C0.5538 41.1738 0.199599 39.2582 0.178431 37.3245C0.029902 34.1098 0 33.1456 0 25C0 16.8544 0.0328431 15.8936 0.176961 12.6765C0.200697 10.7435 0.555334 8.82891 1.22549 7.01569C1.71595 5.69118 2.49527 4.49254 3.50686 3.50686C4.49006 2.49296 5.68878 1.71325 7.01422 1.22549C8.82771 0.553243 10.7435 0.198543 12.6775 0.176961C15.8931 0.029902 16.8588 0 25 0C33.1412 0 34.1064 0.0328431 37.3235 0.176961C39.257 0.20053 41.1721 0.555169 42.9858 1.22549C44.3106 1.71389 45.509 2.49333 46.4926 3.50637C47.506 4.49031 48.2858 5.68902 48.7745 7.01422C49.4469 8.82768 49.8018 10.7435 49.8235 12.6775C49.9706 15.8946 50.0005 16.8578 50.0005 25.001C50.0005 33.1441 49.9706 34.1073 49.8235 37.3245C49.8002 39.2582 49.4454 41.1735 48.7745 42.9873C48.2671 44.3025 47.4898 45.497 46.4928 46.4937C45.4958 47.4905 44.3012 48.2674 42.9858 48.7745C41.1723 49.4469 39.2565 49.8018 37.3225 49.8235C34.1083 49.9706 33.1422 50.0005 24.999 50.0005C16.8559 50.0005 15.8926 49.9721 12.6784 49.8235" fill="url(#paint1_radial_108_1955)"/>
<path d="M18.8609 25.1064C18.861 23.8817 19.2242 22.6847 19.9047 21.6665C20.5851 20.6483 21.5522 19.8548 22.6837 19.3863C23.8151 18.9177 25.0601 18.7953 26.2611 19.0343C27.4622 19.2733 28.5654 19.8632 29.4312 20.7292C30.2971 21.5952 30.8866 22.6986 31.1254 23.8997C31.3641 25.1008 31.2414 26.3458 30.7726 27.4771C30.3038 28.6084 29.51 29.5753 28.4917 30.2555C27.4733 30.9358 26.2762 31.2987 25.0516 31.2985C23.4095 31.2983 21.8348 30.6457 20.6738 29.4845C19.5129 28.3233 18.8608 26.7484 18.8609 25.1064ZM15.5133 25.1064C15.5133 26.9928 16.0727 28.837 17.1208 30.4055C18.1689 31.9741 19.6586 33.1966 21.4014 33.9186C23.1443 34.6405 25.0621 34.8294 26.9124 34.4613C28.7626 34.0933 30.4622 33.1849 31.7961 31.8509C33.1301 30.517 34.0385 28.8174 34.4065 26.9672C34.7746 25.117 34.5857 23.1991 33.8637 21.4562C33.1418 19.7134 31.9193 18.2237 30.3507 17.1756C28.7822 16.1275 26.9381 15.5681 25.0516 15.5681C23.799 15.5681 22.5586 15.8147 21.4014 16.2941C20.2441 16.7734 19.1926 17.4759 18.3069 18.3617C17.4211 19.2474 16.7186 20.2989 16.2393 21.4562C15.7599 22.6134 15.5133 23.8538 15.5133 25.1064ZM32.7383 15.1902C32.7381 15.631 32.8687 16.062 33.1134 16.4287C33.3582 16.7953 33.7062 17.0812 34.1134 17.25C34.5206 17.4189 34.9687 17.4633 35.4011 17.3775C35.8335 17.2916 36.2308 17.0795 36.5426 16.7679C36.8545 16.4564 37.067 16.0593 37.1531 15.627C37.2393 15.1946 37.1954 14.7465 37.0269 14.3391C36.8584 13.9317 36.5728 13.5835 36.2064 13.3384C35.8399 13.0934 35.4091 12.9624 34.9682 12.9623C34.3773 12.9625 33.8107 13.1973 33.3928 13.615C32.9748 14.0328 32.7398 14.5993 32.7393 15.1902M17.5481 40.2265C16.3702 40.2135 15.2034 39.998 14.0986 39.5892C13.2974 39.2804 12.5698 38.8073 11.9625 38.2002C11.3552 37.5932 10.8818 36.8658 10.5726 36.0647C10.1637 34.96 9.94814 33.7931 9.93539 32.6152C9.84519 30.6573 9.82754 30.0691 9.82754 25.1088C9.82754 20.1485 9.84715 19.5618 9.93539 17.602C9.94968 16.4242 10.1652 15.2576 10.5726 14.1524C10.8814 13.351 11.3547 12.6232 11.962 12.0159C12.5693 11.4086 13.2972 10.9352 14.0986 10.6265C15.2033 10.2175 16.3702 10.002 17.5481 9.98921C19.506 9.89902 20.0942 9.88137 25.0525 9.88137C30.0109 9.88137 30.5996 9.90049 32.5594 9.98971C33.7372 10.004 34.9038 10.2195 36.0089 10.627C36.8103 10.9358 37.5382 11.4091 38.1455 12.0164C38.7528 12.6237 39.2261 13.3515 39.5349 14.1529C39.9438 15.2576 40.1594 16.4246 40.1721 17.6025C40.2623 19.5632 40.28 20.1485 40.28 25.1093C40.28 30.0701 40.2619 30.6564 40.1721 32.6162C40.1584 33.794 39.9429 34.9607 39.5349 36.0657C39.2257 36.8667 38.7523 37.5942 38.145 38.2012C37.5378 38.8082 36.8101 39.2814 36.0089 39.5902C34.9042 39.9991 33.7373 40.2147 32.5594 40.2275C30.6016 40.3176 30.0133 40.3353 25.0525 40.3353C20.0918 40.3353 19.5055 40.3172 17.5481 40.2275M17.3942 6.64461C15.853 6.67491 14.328 6.96662 12.8844 7.50734C11.6503 7.98448 10.5296 8.71424 9.59402 9.64981C8.65845 10.5854 7.9287 11.7061 7.45155 12.9402C6.91091 14.3838 6.6192 15.9087 6.58882 17.45C6.49715 19.4304 6.47656 20.0637 6.47656 25.1083C6.47656 30.1529 6.49764 30.7858 6.58882 32.7667C6.61919 34.3079 6.9109 35.8328 7.45155 37.2765C7.92872 38.5105 8.65849 39.6312 9.59405 40.5668C10.5296 41.5024 11.6504 42.2321 12.8844 42.7093C14.3281 43.2498 15.853 43.5415 17.3942 43.5721C19.3756 43.6623 20.0079 43.6843 25.0525 43.6843C30.0971 43.6843 30.73 43.6632 32.7109 43.5721C34.2521 43.5416 35.777 43.2499 37.2207 42.7093C38.4547 42.2321 39.5755 41.5024 40.511 40.5668C41.4466 39.6312 42.1764 38.5105 42.6535 37.2765C43.1949 35.833 43.4866 34.308 43.5163 32.7667C43.6065 30.7848 43.627 30.1529 43.627 25.1083C43.627 20.0637 43.606 19.4309 43.5163 17.45C43.486 15.9087 43.1942 14.3838 42.6535 12.9402C42.1764 11.7064 41.4468 10.5858 40.5115 9.65024C39.5762 8.7147 38.4559 7.98481 37.2222 7.50734C35.7786 6.96628 34.2536 6.67455 32.7123 6.64461C30.7315 6.55392 30.0986 6.53235 25.055 6.53235C20.0114 6.53235 19.377 6.55343 17.3952 6.64461" fill="white"/>
</g>
<defs>
<radialGradient id="paint0_radial_108_1955" cx="0" cy="0" r="1" gradientUnits="userSpaceOnUse" gradientTransform="translate(3.23578 48.9049) scale(63.4814)">
<stop offset="0.09" stop-color="#FA8F21"/>
<stop offset="0.78" stop-color="#D82D7E"/>
</radialGradient>
<radialGradient id="paint1_radial_108_1955" cx="0" cy="0" r="1" gradientUnits="userSpaceOnUse" gradientTransform="translate(34.6333 47.299) scale(55.8642)">
<stop offset="0.64" stop-color="#8C3AAA" stop-opacity="0"/>
<stop offset="1" stop-color="#8C3AAA"/>
</radialGradient>
<clipPath id="clip0_108_1955">
<rect width="50" height="50" fill="white"/>
</clipPath>
</defs>
</svg>
