<svg width="50" height="50" viewBox="0 0 50 50" fill="none" xmlns="http://www.w3.org/2000/svg">
<g clip-path="url(#clip0_108_1959)">
<path d="M38.7773 0H11.2227C5.02458 0 0 5.02458 0 11.2227V38.7773C0 44.9754 5.02458 50 11.2227 50H38.7773C44.9754 50 50 44.9754 50 38.7773V11.2227C50 5.02458 44.9754 0 38.7773 0Z" fill="#0B86CA"/>
<path d="M13.855 20.7828H19.0507V37.5476H13.855V20.7828ZM16.5048 12.4524C17.1 12.4524 17.682 12.6287 18.1772 12.9591C18.6724 13.2895 19.0586 13.7591 19.2872 14.3087C19.5158 14.8584 19.5765 15.4634 19.4616 16.0475C19.3467 16.6316 19.0614 17.1685 18.6417 17.5907C18.222 18.0128 17.6866 18.3012 17.1032 18.4194C16.5198 18.5376 15.9144 18.4804 15.3635 18.255C14.8126 18.0295 14.3407 17.646 14.0075 17.1527C13.6743 16.6594 13.4947 16.0785 13.4913 15.4832C13.489 15.086 13.5652 14.6923 13.7157 14.3247C13.8661 13.9571 14.0877 13.6228 14.3678 13.3411C14.6478 13.0595 14.9808 12.836 15.3475 12.6834C15.7143 12.5309 16.1076 12.4524 16.5048 12.4524Z" fill="white"/>
<path d="M22.3757 20.7828H27.3809V23.0689C27.8819 22.2138 28.6057 21.5109 29.475 21.035C30.3444 20.5592 31.3266 20.3283 32.3168 20.3671C37.5125 20.3671 38.569 23.8309 38.569 28.3512V37.5476H33.3733V29.4423C33.3733 27.5025 33.3733 24.9913 30.6715 24.9913C27.9698 24.9913 27.5541 27.1042 27.5541 29.2864V37.5822H22.3584L22.3757 20.7828Z" fill="white"/>
</g>
<defs>
<clipPath id="clip0_108_1959">
<rect width="50" height="50" fill="white"/>
</clipPath>
</defs>
</svg>
