<svg width="129" height="87" viewBox="0 0 129 87" fill="none" xmlns="http://www.w3.org/2000/svg">
<g filter="url(#filter0_d_65_719)">
<path d="M113.461 10.2467C107.808 10.3414 103.113 15.2674 103.4 20.8564C103.496 23.9825 105.029 26.635 107.329 28.4348C95.4477 44.16 83.3752 45.3915 69.3865 19.3408C74.3688 16.8778 77.1473 10.6256 73.5064 4.3734C71.7818 1.34204 68.2367 -0.173639 64.6916 0.015821C64.5958 0.015821 64.5958 0.015821 64.5 0.015821C64.5 0.015821 64.4042 0.015821 64.3084 0.015821C60.7633 -0.0789091 57.314 1.34204 55.4936 4.3734C51.8527 10.6256 54.6312 16.8778 59.6135 19.3408C45.6248 45.3915 33.5523 44.16 21.6715 28.4348C23.971 26.635 25.504 23.8878 25.5998 20.8564C25.7915 15.2674 21.1924 10.3414 15.5395 10.2467C9.69485 10.1519 5 14.699 5 20.4775C5 26.0666 9.59903 30.7084 15.3478 30.7084C15.7311 30.7084 16.2101 30.7084 16.5934 30.6136L20.5217 68.6951C20.8092 71.7265 23.3961 74 26.4622 74H64.5H102.538C105.604 74 108.191 71.7265 108.478 68.6951L112.407 30.6136C112.79 30.7084 113.173 30.7084 113.652 30.7084C119.305 30.7084 124 26.1613 124 20.4775C124 14.699 119.209 10.1519 113.461 10.2467Z" fill="#FCD44D"/>
<path d="M103.9 20.8411L103.9 20.8308C103.627 15.5322 108.091 10.8368 113.469 10.7466C118.948 10.6563 123.5 14.9879 123.5 20.4775C123.5 25.8768 119.037 30.2084 113.652 30.2084C113.16 30.2084 112.84 30.2057 112.527 30.1282L111.968 29.9902L111.909 30.5623L107.981 68.6438L107.981 68.6479C107.718 71.4123 105.357 73.5 102.538 73.5H64.5H26.4622C23.6435 73.5 21.2816 71.4123 21.0195 68.6479L21.0191 68.6438L17.0908 30.5623L17.0317 29.9902L16.4734 30.1282C16.1608 30.2055 15.7472 30.2084 15.3478 30.2084C9.87283 30.2084 5.5 25.7881 5.5 20.4775C5.5 14.985 9.95925 10.6563 15.5313 10.7466C20.9014 10.8367 25.2823 15.5264 25.1001 20.8393L25.1001 20.8406C25.0094 23.7113 23.5564 26.3246 21.3633 28.0411L20.9763 28.3441L21.2726 28.7363C27.2264 36.6166 33.3778 41.0777 39.9297 40.0477C43.1935 39.5346 46.4769 37.6657 49.8088 34.3158C53.1401 30.9667 56.5442 26.1135 60.054 19.5773L60.2987 19.1217L59.8351 18.8925C55.0936 16.5486 52.4421 10.6105 55.9239 4.62806C57.6289 1.79158 60.8815 0.424429 64.295 0.515643L64.295 0.515821H64.3084H64.3089H64.3095H64.3101H64.3106H64.3112H64.3117H64.3123H64.3129H64.3134H64.314H64.3145H64.3151H64.3157H64.3162H64.3168H64.3174H64.3179H64.3185H64.319H64.3196H64.3202H64.3207H64.3213H64.3218H64.3224H64.323H64.3235H64.3241H64.3246H64.3252H64.3258H64.3263H64.3269H64.3274H64.328H64.3285H64.3291H64.3297H64.3302H64.3308H64.3313H64.3319H64.3325H64.333H64.3336H64.3341H64.3347H64.3352H64.3358H64.3364H64.3369H64.3375H64.338H64.3386H64.3391H64.3397H64.3402H64.3408H64.3414H64.3419H64.3425H64.343H64.3436H64.3441H64.3447H64.3452H64.3458H64.3463H64.3469H64.3474H64.348H64.3485H64.3491H64.3496H64.3502H64.3507H64.3513H64.3518H64.3524H64.3529H64.3535H64.354H64.3546H64.3551H64.3557H64.3562H64.3567H64.3573H64.3578H64.3584H64.3589H64.3595H64.36H64.3606H64.3611H64.3616H64.3622H64.3627H64.3633H64.3638H64.3643H64.3649H64.3654H64.366H64.3665H64.367H64.3676H64.3681H64.3686H64.3692H64.3697H64.3702H64.3708H64.3713H64.3718H64.3724H64.3729H64.3734H64.374H64.3745H64.375H64.3756H64.3761H64.3766H64.3772H64.3777H64.3782H64.3787H64.3793H64.3798H64.3803H64.3808H64.3814H64.3819H64.3824H64.3829H64.3834H64.384H64.3845H64.385H64.3855H64.386H64.3866H64.3871H64.3876H64.3881H64.3886H64.3891H64.3897H64.3902H64.3907H64.3912H64.3917H64.3922H64.3927H64.3932H64.3937H64.3943H64.3948H64.3953H64.3958H64.3963H64.3968H64.3973H64.3978H64.3983H64.3988H64.3993H64.3998H64.4003H64.4008H64.4013H64.4018H64.4023H64.4028H64.4033H64.4038H64.4043H64.4048H64.4053H64.4058H64.4062H64.4067H64.4072H64.4077H64.4082H64.4087H64.4092H64.4097H64.4101H64.4106H64.4111H64.4116H64.4121H64.4126H64.413H64.4135H64.414H64.4145H64.4149H64.4154H64.4159H64.4164H64.4168H64.4173H64.4178H64.4183H64.4187H64.4192H64.4197H64.4201H64.4206H64.4211H64.4215H64.422H64.4224H64.4229H64.4234H64.4238H64.4243H64.4247H64.4252H64.4257H64.4261H64.4266H64.427H64.4275H64.4279H64.4284H64.4288H64.4293H64.4297H64.4301H64.4306H64.431H64.4315H64.4319H64.4324H64.4328H64.4332H64.4337H64.4341H64.4346H64.435H64.4354H64.4359H64.4363H64.4367H64.4371H64.4376H64.438H64.4384H64.4388H64.4393H64.4397H64.4401H64.4405H64.441H64.4414H64.4418H64.4422H64.4426H64.443H64.4435H64.4439H64.4443H64.4447H64.4451H64.4455H64.4459H64.4463H64.4467H64.4471H64.4475H64.4479H64.4483H64.4487H64.4491H64.4495H64.4499H64.4503H64.4507H64.4511H64.4515H64.4518H64.4522H64.4526H64.453H64.4534H64.4538H64.4542H64.4545H64.4549H64.4553H64.4557H64.456H64.4564H64.4568H64.4571H64.4575H64.4579H64.4583H64.4586H64.459H64.4593H64.4597H64.4601H64.4604H64.4608H64.4611H64.4615H64.4618H64.4622H64.4626H64.4629H64.4633H64.4636H64.4639H64.4643H64.4646H64.465H64.4653H64.4657H64.466H64.4663H64.4667H64.467H64.4673H64.4677H64.468H64.4683H64.4686H64.469H64.4693H64.4696H64.4699H64.4702H64.4706H64.4709H64.4712H64.4715H64.4718H64.4721H64.4724H64.4727H64.473H64.4734H64.4737H64.474H64.4743H64.4746H64.4749H64.4751H64.4754H64.4757H64.476H64.4763H64.4766H64.4769H64.4772H64.4775H64.4777H64.478H64.4783H64.4786H64.4788H64.4791H64.4794H64.4797H64.4799H64.4802H64.4805H64.4807H64.481H64.4813H64.4815H64.4818H64.482H64.4823H64.4825H64.4828H64.483H64.4833H64.4835H64.4838H64.484H64.4843H64.4845H64.4847H64.485H64.4852H64.4854H64.4857H64.4859H64.4861H64.4864H64.4866H64.4868H64.487H64.4872H64.4875H64.4877H64.4879H64.4881H64.4883H64.4885H64.4887H64.4889H64.4891H64.4893H64.4896H64.4898H64.4899H64.4901H64.4903H64.4905H64.4907H64.4909H64.4911H64.4913H64.4915H64.4916H64.4918H64.492H64.4922H64.4923H64.4925H64.4927H64.4929H64.493H64.4932H64.4933H64.4935H64.4937H64.4938H64.494H64.4941H64.4943H64.4944H64.4946H64.4947H64.4949H64.495H64.4952H64.4953H64.4954H64.4956H64.4957H64.4958H64.496H64.4961H64.4962H64.4963H64.4965H64.4966H64.4967H64.4968H64.4969H64.497H64.4971H64.4972H64.4973H64.4975H64.4976H64.4977H64.4977H64.4978H64.4979H64.498H64.4981H64.4982H64.4983H64.4984H64.4985H64.4985H64.4986H64.4987H64.4988H64.4988H64.4989H64.499H64.499H64.4991H64.4992H64.4992H64.4993H64.4993H64.4994H64.4994H64.4995H64.4995H64.4996H64.4996H64.4996H64.4997H64.4997H64.4998H64.4998H64.4998H64.4999H64.4999H64.4999H64.5H64.5006H64.5011H64.5017H64.5022H64.5028H64.5033H64.5039H64.5044H64.505H64.5055H64.506H64.5066H64.5071H64.5076H64.5082H64.5087H64.5092H64.5098H64.5103H64.5108H64.5113H64.5118H64.5123H64.5129H64.5134H64.5139H64.5144H64.5149H64.5154H64.5159H64.5164H64.5169H64.5174H64.5179H64.5184H64.5189H64.5193H64.5198H64.5203H64.5208H64.5213H64.5218H64.5222H64.5227H64.5232H64.5236H64.5241H64.5246H64.525H64.5255H64.526H64.5264H64.5269H64.5273H64.5278H64.5283H64.5287H64.5292H64.5296H64.53H64.5305H64.5309H64.5314H64.5318H64.5322H64.5327H64.5331H64.5336H64.534H64.5344H64.5348H64.5353H64.5357H64.5361H64.5365H64.537H64.5374H64.5378H64.5382H64.5386H64.539H64.5394H64.5399H64.5403H64.5407H64.5411H64.5415H64.5419H64.5423H64.5427H64.5431H64.5435H64.5439H64.5443H64.5447H64.5451H64.5454H64.5458H64.5462H64.5466H64.547H64.5474H64.5478H64.5481H64.5485H64.5489H64.5493H64.5496H64.55H64.5504H64.5508H64.5511H64.5515H64.5519H64.5522H64.5526H64.553H64.5533H64.5537H64.554H64.5544H64.5548H64.5551H64.5555H64.5558H64.5562H64.5565H64.5569H64.5572H64.5576H64.5579H64.5583H64.5586H64.559H64.5593H64.5597H64.56H64.5603H64.5607H64.561H64.5614H64.5617H64.562H64.5624H64.5627H64.563H64.5634H64.5637H64.564H64.5644H64.5647H64.565H64.5653H64.5657H64.566H64.5663H64.5666H64.567H64.5673H64.5676H64.5679H64.5682H64.5686H64.5689H64.5692H64.5695H64.5698H64.5701H64.5705H64.5708H64.5711H64.5714H64.5717H64.572H64.5723H64.5726H64.5729H64.5732H64.5735H64.5739H64.5742H64.5745H64.5748H64.5751H64.5754H64.5757H64.576H64.5763H64.5766H64.5769H64.5772H64.5775H64.5778H64.5781H64.5784H64.5787H64.579H64.5793H64.5795H64.5798H64.5801H64.5804H64.5807H64.581H64.5813H64.5816H64.5819H64.5822H64.5825H64.5828H64.5831H64.5833H64.5836H64.5839H64.5842H64.5845H64.5848H64.5851H64.5854H64.5856H64.5859H64.5862H64.5865H64.5868H64.5871H64.5874H64.5876H64.5879H64.5882H64.5885H64.5888H64.5891H64.5893H64.5896H64.5899H64.5902H64.5905H64.5908H64.591H64.5913H64.5916H64.5919H64.5922H64.5924H64.5927H64.593H64.5933H64.5936H64.5938H64.5941H64.5944H64.5947H64.595H64.5952H64.5955H64.5958H64.5961H64.5964H64.5967H64.5969H64.5972H64.5975H64.5978H64.5981H64.5983H64.5986H64.5989H64.5992H64.5995H64.5997H64.6H64.6003H64.6006H64.6009H64.6012H64.6014H64.6017H64.602H64.6023H64.6026H64.6029H64.6031H64.6034H64.6037H64.604H64.6043H64.6046H64.6048H64.6051H64.6054H64.6057H64.606H64.6063H64.6066H64.6068H64.6071H64.6074H64.6077H64.608H64.6083H64.6086H64.6089H64.6092H64.6094H64.6097H64.61H64.6103H64.6106H64.6109H64.6112H64.6115H64.6118H64.6121H64.6124H64.6127H64.613H64.6133H64.6136H64.6139H64.6142H64.6144H64.6148H64.615H64.6153H64.6157H64.616H64.6163H64.6166H64.6169H64.6172H64.6175H64.6178H64.6181H64.6184H64.6187H64.619H64.6193H64.6196H64.6199H64.6202H64.6205H64.6209H64.6212H64.6215H64.6218H64.6221H64.6224H64.6227H64.6231H64.6234H64.6237H64.624H64.6243H64.6247H64.625H64.6253H64.6256H64.626H64.6263H64.6266H64.6269H64.6273H64.6276H64.6279H64.6283H64.6286H64.6289H64.6293H64.6296H64.6299H64.6303H64.6306H64.6309H64.6313H64.6316H64.632H64.6323H64.6326H64.633H64.6333H64.6337H64.634H64.6344H64.6347H64.6351H64.6354H64.6358H64.6361H64.6365H64.6369H64.6372H64.6376H64.6379H64.6383H64.6387H64.639H64.6394H64.6398H64.6401H64.6405H64.6409H64.6412H64.6416H64.642H64.6424H64.6427H64.6431H64.6435H64.6439H64.6443H64.6446H64.645H64.6454H64.6458H64.6462H64.6466H64.647H64.6474H64.6477H64.6481H64.6485H64.6489H64.6493H64.6497H64.6501H64.6505H64.651H64.6514H64.6518H64.6522H64.6526H64.653H64.6534H64.6538H64.6542H64.6547H64.6551H64.6555H64.6559H64.6564H64.6568H64.6572H64.6576H64.6581H64.6585H64.6589H64.6594H64.6598H64.6603H64.6607H64.6611H64.6616H64.662H64.6625H64.6629H64.6634H64.6638H64.6643H64.6647H64.6652H64.6657H64.6661H64.6666H64.667H64.6675H64.668H64.6684H64.6689H64.6694H64.6699H64.6703H64.6708H64.6713H64.6718H64.6723H64.6728H64.6733H64.6737H64.6742H64.6747H64.6752H64.6757H64.6762H64.6767H64.6772H64.6777H64.6783H64.6788H64.6793H64.6798H64.6803H64.6808H64.6813H64.6819H64.6824H64.6829H64.6834H64.684H64.6845H64.685H64.6856H64.6861H64.6867H64.6872H64.6877H64.6883H64.6888H64.6894H64.6899H64.6905H64.6911H64.6916H64.705L64.7183 0.515108C68.1205 0.333285 71.4617 1.79055 73.0718 4.62067L73.0744 4.62502C76.5588 10.6085 73.9072 16.5482 69.1649 18.8925L68.7013 19.1217L68.946 19.5773C72.4558 26.1135 75.8599 30.9667 79.1912 34.3158C82.5231 37.6657 85.8065 39.5346 89.0703 40.0477C95.6222 41.0777 101.774 36.6166 107.727 28.7363L108.024 28.3441L107.637 28.0411C105.441 26.3226 103.991 23.8033 103.9 20.8411Z" stroke="#301E52"/>
</g>
<defs>
<filter id="filter0_d_65_719" x="0" y="0" width="129" height="87" filterUnits="userSpaceOnUse" color-interpolation-filters="sRGB">
<feFlood flood-opacity="0" result="BackgroundImageFix"/>
<feColorMatrix in="SourceAlpha" type="matrix" values="0 0 0 0 0 0 0 0 0 0 0 0 0 0 0 0 0 0 127 0" result="hardAlpha"/>
<feOffset dy="8"/>
<feGaussianBlur stdDeviation="2.5"/>
<feComposite in2="hardAlpha" operator="out"/>
<feColorMatrix type="matrix" values="0 0 0 0 0 0 0 0 0 0 0 0 0 0 0 0 0 0 0.25 0"/>
<feBlend mode="normal" in2="BackgroundImageFix" result="effect1_dropShadow_65_719"/>
<feBlend mode="normal" in="SourceGraphic" in2="effect1_dropShadow_65_719" result="shape"/>
</filter>
</defs>
</svg>
