<svg width="28" height="23" viewBox="0 0 28 23" fill="none" xmlns="http://www.w3.org/2000/svg">
<path d="M18.606 8.86646L14.714 12.7852C14.4809 12.7228 14.2411 12.6896 14 12.6865C13.2574 12.6865 12.5452 12.9835 12.0201 13.5122C11.495 14.0409 11.2 14.758 11.2 15.5057C11.2031 15.7485 11.236 15.99 11.298 16.2246L10.206 17.3241C10.0748 17.4552 9.97064 17.6111 9.89956 17.7829C9.82849 17.9546 9.79189 18.1389 9.79189 18.325C9.79189 18.511 9.82849 18.6953 9.89956 18.8671C9.97064 19.0388 10.0748 19.1947 10.206 19.3258C10.3362 19.4579 10.491 19.5628 10.6616 19.6343C10.8322 19.7059 11.0152 19.7427 11.2 19.7427C11.3848 19.7427 11.5678 19.7059 11.7384 19.6343C11.909 19.5628 12.0639 19.4579 12.194 19.3258L13.286 18.2263C13.5191 18.2887 13.7589 18.3218 14 18.325C14.7426 18.325 15.4548 18.0279 15.9799 17.4992C16.505 16.9705 16.8 16.2534 16.8 15.5057C16.7969 15.2629 16.764 15.0215 16.702 14.7868L20.594 10.8681C20.8576 10.6027 21.0057 10.2427 21.0057 9.86728C21.0057 9.4919 20.8576 9.13189 20.594 8.86646C20.3304 8.60102 19.9728 8.4519 19.6 8.4519C19.2272 8.4519 18.8696 8.60102 18.606 8.86646ZM14 0C12.1615 0 10.341 0.364607 8.64245 1.073C6.94389 1.7814 5.40055 2.81971 4.10054 4.12866C1.47503 6.77219 4.29073e-05 10.3576 4.29073e-05 14.0961C-0.00685149 16.888 0.817252 19.6178 2.36604 21.9336C2.57396 22.2439 2.8958 22.4583 3.26075 22.5297C3.62569 22.601 4.00385 22.5235 4.31203 22.3142C4.62021 22.1048 4.83317 21.7808 4.90406 21.4133C4.97495 21.0458 4.89796 20.6651 4.69003 20.3548C3.56236 18.657 2.91383 16.6827 2.81369 14.6427C2.71355 12.6027 3.16557 10.5736 4.12147 8.77206C5.07737 6.97055 6.50127 5.46426 8.24112 4.41404C9.98097 3.36382 11.9714 2.80909 14 2.80909C16.0286 2.80909 18.019 3.36382 19.7589 4.41404C21.4987 5.46426 22.9226 6.97055 23.8785 8.77206C24.8344 10.5736 25.2864 12.6027 25.1863 14.6427C25.0862 16.6827 24.4376 18.657 23.31 20.3548C23.2068 20.5084 23.1347 20.6809 23.0979 20.8626C23.061 21.0442 23.0601 21.2314 23.0952 21.4134C23.1303 21.5954 23.2008 21.7687 23.3025 21.9233C23.4042 22.0778 23.5352 22.2106 23.688 22.3142C23.9197 22.471 24.1927 22.5544 24.472 22.5538C24.7013 22.5541 24.9272 22.4978 25.1298 22.3896C25.3324 22.2815 25.5055 22.1249 25.634 21.9336C27.1827 19.6178 28.0069 16.888 28 14.0961C28 10.3576 26.525 6.77219 23.8995 4.12866C21.274 1.48512 17.713 0 14 0Z" fill="#F3F3F3"/>
</svg>
