<svg width="24" height="15" viewBox="0 0 24 15" fill="none" xmlns="http://www.w3.org/2000/svg">
<path d="M21.225 2.02813C20.1187 2.04688 19.2 3.02188 19.2562 4.12813C19.275 4.74688 19.575 5.27188 20.025 5.62813C17.7 8.74063 15.3375 8.98438 12.6 3.82813C13.575 3.34063 14.1187 2.10313 13.4062 0.865632C13.0687 0.265632 12.375 -0.0343685 11.6812 0.00313146C11.6625 0.00313146 11.6625 0.00313146 11.6437 0.00313146C11.6437 0.00313146 11.625 0.00313146 11.6062 0.00313146C10.9125 -0.0156185 10.2375 0.265632 9.88125 0.865632C9.16875 2.10313 9.7125 3.34063 10.6875 3.82813C7.95 8.98438 5.5875 8.74063 3.2625 5.62813C3.7125 5.27188 4.0125 4.72813 4.03125 4.12813C4.06875 3.02188 3.16875 2.04688 2.0625 2.02813C0.91875 2.00938 0 2.90938 0 4.05313C0 5.15938 0.9 6.07813 2.025 6.07813C2.1 6.07813 2.19375 6.07813 2.26875 6.05938L3.0375 13.5969C3.09375 14.1969 3.6 14.6469 4.2 14.6469H11.6437H19.0875C19.6875 14.6469 20.1937 14.1969 20.25 13.5969L21.0187 6.05938C21.0937 6.07813 21.1687 6.07813 21.2625 6.07813C22.3687 6.07813 23.2875 5.17813 23.2875 4.05313C23.2875 2.90938 22.35 2.00938 21.225 2.02813Z" fill="#FCD44D"/>
</svg>
