<svg width="31" height="32" viewBox="0 0 31 32" fill="none" xmlns="http://www.w3.org/2000/svg">
<path d="M28.4202 14.2775C28.4238 13.3683 28.1871 12.4743 27.7341 11.686C27.281 10.8977 26.6277 10.2431 25.8403 9.78848C25.8597 9.56531 25.8597 9.34087 25.8403 9.1177C25.8403 8.09135 25.4326 7.10703 24.7068 6.38128C23.9811 5.65554 22.9968 5.24782 21.9704 5.24782H21.7382C21.5234 4.65226 21.1657 4.11851 20.6966 3.69335C20.2275 3.2682 19.6612 2.96464 19.0475 2.80929C18.4337 2.65394 17.7912 2.65154 17.1763 2.80232C16.5614 2.95309 15.9929 3.25242 15.5206 3.67407C15.0483 3.25242 14.4798 2.95309 13.8649 2.80232C13.25 2.65154 12.6075 2.65394 11.9937 2.80929C11.38 2.96464 10.8137 3.2682 10.3446 3.69335C9.87546 4.11851 9.51781 4.65226 9.30299 5.24782H9.0708C8.04444 5.24782 7.06012 5.65554 6.33438 6.38128C5.60864 7.10703 5.20092 8.09135 5.20092 9.1177C5.1815 9.34087 5.1815 9.56531 5.20092 9.78848C4.46882 10.2023 3.84895 10.7888 3.39529 11.4969C2.94162 12.205 2.6679 13.0132 2.59796 13.8513C2.52801 14.6893 2.66397 15.5318 2.99398 16.3053C3.32399 17.0788 3.83806 17.7599 4.49144 18.2893C4.06868 19.0778 3.85822 19.9627 3.8807 20.8571C3.90319 21.7515 4.15785 22.6247 4.61969 23.391C5.08154 24.1572 5.73469 24.7903 6.51504 25.2279C7.29539 25.6655 8.17613 25.8927 9.0708 25.8872H9.30299C9.51781 26.4827 9.87546 27.0165 10.3446 27.4417C10.8137 27.8668 11.38 28.1704 11.9937 28.3257C12.6075 28.4811 13.25 28.4835 13.8649 28.3327C14.4798 28.1819 15.0483 27.8826 15.5206 27.4609C15.9929 27.8826 16.5614 28.1819 17.1763 28.3327C17.7912 28.4835 18.4337 28.4811 19.0475 28.3257C19.6612 28.1704 20.2275 27.8668 20.6966 27.4417C21.1657 27.0165 21.5234 26.4827 21.7382 25.8872H21.9704C22.8596 25.8816 23.7323 25.6462 24.5037 25.204C25.2752 24.7618 25.9193 24.1278 26.3736 23.3633C26.8278 22.5989 27.0768 21.73 27.0964 20.841C27.1159 19.952 26.9054 19.073 26.4853 18.2893C27.0869 17.8076 27.5731 17.1972 27.9079 16.503C28.2427 15.8087 28.4178 15.0483 28.4202 14.2775ZM14.2306 11.1171C13.9497 10.9564 13.6564 10.8184 13.3535 10.7044C13.0285 10.5949 12.6733 10.619 12.366 10.7714C12.0588 10.9238 11.8247 11.192 11.7152 11.517C11.6057 11.842 11.6299 12.1972 11.7823 12.5045C11.9347 12.8117 12.2029 13.0458 12.5279 13.1553C13.0245 13.3348 13.454 13.6623 13.7585 14.0937C14.063 14.5251 14.2278 15.0395 14.2306 15.5675V17.5669C13.9497 17.4062 13.6564 17.2682 13.3535 17.1542C13.0285 17.0447 12.6733 17.0688 12.366 17.2212C12.0588 17.3736 11.8247 17.6418 11.7152 17.9668C11.6057 18.2918 11.6299 18.647 11.7823 18.9543C11.9347 19.2615 12.2029 19.4956 12.5279 19.6051C13.0245 19.7846 13.454 20.1121 13.7585 20.5435C14.063 20.9749 14.2278 21.4893 14.2306 22.0173V24.5972C14.2306 24.9393 14.0947 25.2674 13.8528 25.5094C13.6109 25.7513 13.2828 25.8872 12.9407 25.8872C12.6911 25.8856 12.4474 25.8116 12.239 25.6742C12.0307 25.5368 11.8666 25.3419 11.7668 25.1132C11.9831 24.9863 12.19 24.844 12.386 24.6875C12.5164 24.5791 12.6242 24.4461 12.7033 24.296C12.7823 24.1459 12.831 23.9817 12.8465 23.8128C12.8621 23.6439 12.8443 23.4736 12.794 23.3116C12.7438 23.1496 12.6621 22.9991 12.5537 22.8687C12.4453 22.7382 12.3122 22.6304 12.1621 22.5514C12.0121 22.4724 11.8479 22.4237 11.679 22.4081C11.5101 22.3926 11.3398 22.4104 11.1778 22.4607C11.0158 22.5109 10.8653 22.5926 10.7348 22.701C10.2691 23.0931 9.67964 23.3079 9.0708 23.3073C8.38656 23.3073 7.73035 23.0354 7.24652 22.5516C6.76269 22.0678 6.49088 21.4116 6.49088 20.7273C6.49705 20.2418 6.64013 19.7678 6.90367 19.36C7.19316 19.4119 7.48672 19.4378 7.78084 19.4374C8.12296 19.4374 8.45106 19.3015 8.69298 19.0596C8.93489 18.8176 9.0708 18.4895 9.0708 18.1474C9.0708 17.8053 8.93489 17.4772 8.69298 17.2353C8.45106 16.9934 8.12296 16.8575 7.78084 16.8575C7.47613 16.8592 7.17394 16.8023 6.89077 16.6898C6.42683 16.5224 6.02057 16.2256 5.72012 15.8345C5.41967 15.4434 5.23762 14.9744 5.19554 14.483C5.15346 13.9916 5.25311 13.4984 5.48268 13.0619C5.71226 12.6254 6.06214 12.2639 6.49088 12.0201C6.67418 12.1888 6.87284 12.3399 7.08426 12.4716C7.3819 12.6427 7.73531 12.6885 8.06673 12.599C8.39816 12.5095 8.68045 12.292 8.85151 11.9943C9.02256 11.6967 9.06838 11.3433 8.97887 11.0118C8.88936 10.6804 8.67186 10.3981 8.37422 10.2271C8.19263 10.1269 8.04118 9.9799 7.93563 9.80138C7.81637 9.59427 7.76242 9.35598 7.78084 9.1177C7.78084 8.77558 7.91675 8.44748 8.15866 8.20556C8.40057 7.96365 8.72868 7.82774 9.0708 7.82774C9.16066 7.81521 9.25183 7.81521 9.34169 7.82774C9.40998 8.035 9.49185 8.23753 9.58678 8.43402C9.67106 8.58184 9.78374 8.71152 9.91834 8.8156C10.0529 8.91968 10.2068 8.9961 10.3711 9.04046C10.5353 9.08483 10.7068 9.09625 10.8755 9.07409C11.0442 9.05192 11.2068 8.9966 11.354 8.91131C11.64 8.73924 11.8482 8.46301 11.9348 8.14068C12.0214 7.81834 11.9797 7.47499 11.8184 7.18276C11.7102 6.98489 11.6526 6.76332 11.6507 6.53778C11.6507 6.19566 11.7866 5.86756 12.0285 5.62564C12.2705 5.38373 12.5986 5.24782 12.9407 5.24782C13.2828 5.24782 13.6109 5.38373 13.8528 5.62564C14.0947 5.86756 14.2306 6.19566 14.2306 6.53778V11.1171ZM24.1504 16.6898C23.8673 16.8023 23.5651 16.8592 23.2604 16.8575C22.9182 16.8575 22.5901 16.9934 22.3482 17.2353C22.1063 17.4772 21.9704 17.8053 21.9704 18.1474C21.9704 18.4895 22.1063 18.8176 22.3482 19.0596C22.5901 19.3015 22.9182 19.4374 23.2604 19.4374C23.5545 19.4378 23.848 19.4119 24.1375 19.36C24.4011 19.7678 24.5441 20.2418 24.5503 20.7273C24.5503 21.4116 24.2785 22.0678 23.7947 22.5516C23.3109 23.0354 22.6546 23.3073 21.9704 23.3073C21.3616 23.3079 20.7721 23.0931 20.3064 22.701C20.0429 22.482 19.7033 22.3767 19.3622 22.4081C19.0211 22.4396 18.7065 22.6052 18.4875 22.8687C18.2686 23.1321 18.1632 23.4717 18.1947 23.8128C18.2261 24.1539 18.3918 24.4686 18.6552 24.6875C18.8512 24.844 19.0581 24.9863 19.2744 25.1132C19.1746 25.3419 19.0105 25.5368 18.8022 25.6742C18.5938 25.8116 18.3501 25.8856 18.1005 25.8872C17.7584 25.8872 17.4303 25.7513 17.1884 25.5094C16.9465 25.2674 16.8106 24.9393 16.8106 24.5972V22.0173C16.8134 21.4893 16.9782 20.9749 17.2827 20.5435C17.5872 20.1121 18.0167 19.7846 18.5133 19.6051C18.8383 19.4956 19.1065 19.2615 19.2589 18.9543C19.4113 18.647 19.4355 18.2918 19.326 17.9668C19.2165 17.6418 18.9824 17.3736 18.6752 17.2212C18.3679 17.0688 18.0127 17.0447 17.6877 17.1542C17.3848 17.2682 17.0915 17.4062 16.8106 17.5669V15.5675C16.8134 15.0395 16.9782 14.5251 17.2827 14.0937C17.5872 13.6623 18.0167 13.3348 18.5133 13.1553C18.8383 13.0458 19.1065 12.8117 19.2589 12.5045C19.4113 12.1972 19.4355 11.842 19.326 11.517C19.2165 11.192 18.9824 10.9238 18.6752 10.7714C18.3679 10.619 18.0127 10.5949 17.6877 10.7044C17.3848 10.8184 17.0915 10.9564 16.8106 11.1171V6.53778C16.8106 6.19566 16.9465 5.86756 17.1884 5.62564C17.4303 5.38373 17.7584 5.24782 18.1005 5.24782C18.4426 5.24782 18.7707 5.38373 19.0127 5.62564C19.2546 5.86756 19.3905 6.19566 19.3905 6.53778C19.3886 6.76332 19.331 6.98489 19.2228 7.18276C19.137 7.32922 19.0809 7.49118 19.0578 7.65935C19.0347 7.82752 19.045 7.9986 19.0881 8.16278C19.1313 8.32696 19.2064 8.48101 19.3092 8.6161C19.412 8.75119 19.5404 8.86466 19.6872 8.95001C19.8344 9.0353 19.997 9.09062 20.1657 9.11279C20.3344 9.13495 20.5059 9.12352 20.6701 9.07916C20.8344 9.0348 20.9883 8.95838 21.1229 8.8543C21.2575 8.75022 21.3701 8.62054 21.4544 8.47272C21.551 8.26367 21.6329 8.04816 21.6995 7.82774C21.7894 7.81521 21.8805 7.81521 21.9704 7.82774C22.3125 7.82774 22.6406 7.96365 22.8825 8.20556C23.1245 8.44748 23.2604 8.77558 23.2604 9.1177C23.2584 9.37058 23.1821 9.6173 23.0411 9.82718C22.9356 9.99457 22.789 10.1322 22.6154 10.2271C22.3177 10.3981 22.1002 10.6804 22.0107 11.0118C21.9212 11.3433 21.967 11.6967 22.1381 11.9943C22.3092 12.292 22.5914 12.5095 22.9229 12.599C23.2543 12.6885 23.6077 12.6427 23.9053 12.4716C24.1369 12.3463 24.3534 12.1949 24.5503 12.0201C24.9805 12.2596 25.3332 12.6171 25.5668 13.0506C25.8003 13.484 25.9049 13.9752 25.8683 14.4662C25.8317 14.9572 25.6554 15.4275 25.3601 15.8215C25.0648 16.2155 24.663 16.5168 24.202 16.6898H24.1504Z" fill="white"/>
</svg>
