<svg width="17" height="26" viewBox="0 0 17 26" fill="none" xmlns="http://www.w3.org/2000/svg">
<path fill-rule="evenodd" clip-rule="evenodd" d="M8.49995 3.85727C6.78173 3.85727 5.38883 5.25016 5.38883 6.96838C5.38883 8.6866 6.78173 10.0795 8.49995 10.0795C10.2182 10.0795 11.6111 8.6866 11.6111 6.96838C11.6111 5.25016 10.2182 3.85727 8.49995 3.85727ZM2.27772 6.96838C2.27772 3.53194 5.06351 0.746155 8.49995 0.746155C11.9364 0.746155 14.7222 3.53194 14.7222 6.96838C14.7222 10.4048 11.9364 13.1906 8.49995 13.1906C5.06351 13.1906 2.27772 10.4048 2.27772 6.96838Z" fill="white"/>
<path fill-rule="evenodd" clip-rule="evenodd" d="M0.722168 22.5239C0.722168 18.2284 4.2044 14.7462 8.49995 14.7462C12.7955 14.7462 16.2777 18.2284 16.2777 22.5239V23.3017C16.2777 24.5904 15.2331 25.635 13.9444 25.635H3.0555C1.76684 25.635 0.722168 24.5904 0.722168 23.3017V22.5239ZM8.49995 17.8573C5.92262 17.8573 3.83328 19.9466 3.83328 22.5239H13.1666C13.1666 19.9466 11.0773 17.8573 8.49995 17.8573Z" fill="white"/>
</svg>
