<svg width="22" height="23" viewBox="0 0 22 23" fill="none" xmlns="http://www.w3.org/2000/svg">
<path fill-rule="evenodd" clip-rule="evenodd" d="M2.75 17V18.375C2.75 19.1344 3.36561 19.75 4.125 19.75H17.875C18.6344 19.75 19.25 19.1344 19.25 18.375V17H22V18.375C22 20.6532 20.1532 22.5 17.875 22.5H4.125C1.84683 22.5 0 20.6532 0 18.375V17H2.75Z" fill="#703EDC"/>
<path fill-rule="evenodd" clip-rule="evenodd" d="M10.0277 0.902728C10.5647 0.365757 11.4353 0.365757 11.9723 0.902728L17.0695 6L15.125 7.94454L12.375 5.19454V15.625H9.625L9.625 5.19454L6.875 7.94454L4.93046 6L10.0277 0.902728Z" fill="#703EDC"/>
</svg>
