<svg width="32" height="23" viewBox="0 0 32 23" fill="none" xmlns="http://www.w3.org/2000/svg">
<path fill-rule="evenodd" clip-rule="evenodd" d="M1.85047 11.3333L0.569374 12.1874L0 11.3333L0.569374 10.4793C0.589702 10.4488 0.610288 10.4179 0.631136 10.3866C2.66495 7.33449 7.1822 0.555542 15.7076 0.555542C20.1489 0.555542 23.9801 3.19462 26.5674 5.5829C27.8878 6.80173 28.9496 8.01578 29.6812 8.92397C30.0479 9.37926 30.3342 9.76074 30.5309 10.0316C30.6293 10.1672 30.7055 10.2753 30.7583 10.3513C30.7848 10.3894 30.8053 10.4194 30.82 10.4409L30.8374 10.4667L30.8428 10.4747L30.8446 10.4774C30.8449 10.4778 30.8458 10.4793 29.5647 11.3333C30.8458 12.1874 30.8456 12.1878 30.8453 12.1882L30.8428 12.192L30.8374 12.1999L30.82 12.2257C30.8053 12.2472 30.7848 12.2772 30.7583 12.3153C30.7055 12.3914 30.6293 12.4994 30.5309 12.635C30.3342 12.9059 30.0479 13.2874 29.6812 13.7427C28.9496 14.6508 27.8878 15.8649 26.5674 17.0837C23.9801 19.472 20.1489 22.1111 15.7076 22.1111C11.2663 22.1111 7.4351 19.472 4.8478 17.0837C3.52741 15.8649 2.46563 14.6508 1.73402 13.7427C1.36727 13.2874 1.08103 12.9059 0.884299 12.635C0.785877 12.4994 0.70969 12.3914 0.656864 12.3153C0.630445 12.2772 0.609854 12.2472 0.595229 12.2257L0.57778 12.1999L0.57244 12.192L0.570622 12.1892C0.570334 12.1888 0.569374 12.1874 1.85047 11.3333ZM3.73015 11.2996C3.84802 11.4534 3.98228 11.6249 4.13209 11.8109C4.79582 12.6348 5.75487 13.7303 6.93647 14.821C9.35312 17.0518 12.4505 19.0317 15.7076 19.0317C18.9647 19.0317 22.0621 17.0518 24.4787 14.821C25.6603 13.7303 26.6194 12.6348 27.2831 11.8109C27.4221 11.6384 27.5477 11.4783 27.6592 11.3333C27.5477 11.1883 27.4221 11.0283 27.2831 10.8557C26.6194 10.0318 25.6603 8.93633 24.4787 7.84563C22.0621 5.61487 18.9647 3.63491 15.7076 3.63491C9.5259 3.63491 5.91355 8.11761 3.73015 11.2996ZM29.5647 11.3333L30.8453 12.1882L31.4152 11.3333L30.8458 10.4793L29.5647 11.3333Z" fill="white"/>
<path fill-rule="evenodd" clip-rule="evenodd" d="M15.7076 17.492C19.109 17.492 21.8663 14.7347 21.8663 11.3333C21.8663 7.93194 19.109 5.17459 15.7076 5.17459C12.3062 5.17459 9.54887 7.93194 9.54887 11.3333C9.54887 14.7347 12.3062 17.492 15.7076 17.492ZM15.7076 19.0317C19.9593 19.0317 23.406 15.585 23.406 11.3333C23.406 7.0816 19.9593 3.63491 15.7076 3.63491C11.4559 3.63491 8.00919 7.0816 8.00919 11.3333C8.00919 15.585 11.4559 19.0317 15.7076 19.0317Z" fill="white"/>
<path d="M18.787 11.3333C18.787 13.034 17.4083 14.4127 15.7076 14.4127C14.0069 14.4127 12.6282 13.034 12.6282 11.3333C12.6282 9.63263 14.0069 8.25395 15.7076 8.25395C17.4083 8.25395 18.787 9.63263 18.787 11.3333Z" fill="white"/>
</svg>
